<svg width="21" height="20" viewBox="0 0 21 20" fill="none" xmlns="http://www.w3.org/2000/svg">
<mask id="mask0_342_2320" style="mask-type:alpha" maskUnits="userSpaceOnUse" x="0" y="0" width="21" height="20">
<rect x="0.0820312" width="20" height="20" fill="#D9D9D9"/>
</mask>
<g mask="url(#mask0_342_2320)">
<path d="M12.8314 17.4375L5.89388 10.5208C5.82444 10.4513 5.77249 10.3713 5.73805 10.2808C5.70305 10.1908 5.68555 10.0972 5.68555 9.99996C5.68555 9.90274 5.70305 9.80885 5.73805 9.71829C5.77249 9.62829 5.82444 9.54857 5.89388 9.47913L12.8314 2.54163C12.998 2.37496 13.1925 2.29163 13.4147 2.29163C13.6369 2.29163 13.8383 2.3819 14.0189 2.56246C14.1855 2.71524 14.2689 2.90607 14.2689 3.13496C14.2689 3.3644 14.1855 3.56246 14.0189 3.72913L7.72721 9.99996L14.0189 16.2916C14.1717 16.4444 14.248 16.6319 14.248 16.8541C14.248 17.0763 14.1647 17.2708 13.998 17.4375C13.8314 17.6041 13.6369 17.6875 13.4147 17.6875C13.1925 17.6875 12.998 17.6041 12.8314 17.4375Z" fill="#75929F"/>
</g>
</svg>
