<svg width="21" height="20" viewBox="0 0 21 20" fill="none" xmlns="http://www.w3.org/2000/svg">
<mask id="mask0_342_2324" style="mask-type:alpha" maskUnits="userSpaceOnUse" x="0" y="0" width="21" height="20">
<rect x="0.0820312" width="20" height="20" fill="#D9D9D9"/>
</mask>
<g mask="url(#mask0_342_2324)">
<path d="M6.18685 17.4375C6.02018 17.2847 5.93685 17.0936 5.93685 16.8641C5.93685 16.6352 6.02018 16.4375 6.18685 16.2708L12.4368 9.99996L6.16602 3.70829C5.99935 3.55551 5.91602 3.3644 5.91602 3.13496C5.91602 2.90607 6.00629 2.70829 6.18685 2.54163C6.33963 2.37496 6.53074 2.29163 6.76018 2.29163C6.98907 2.29163 7.18685 2.37496 7.35352 2.54163L14.2702 9.47913C14.3535 9.54857 14.4127 9.62829 14.4477 9.71829C14.4821 9.80885 14.4993 9.90274 14.4993 9.99996C14.4993 10.0972 14.4821 10.1908 14.4477 10.2808C14.4127 10.3713 14.3535 10.4513 14.2702 10.5208L7.33268 17.4583C7.1799 17.625 6.9924 17.7083 6.77018 17.7083C6.54796 17.7083 6.35352 17.618 6.18685 17.4375Z" fill="#75929F"/>
</g>
</svg>
