<svg width="32" height="34" viewBox="0 0 32 34" fill="none" xmlns="http://www.w3.org/2000/svg">
<path d="M20.875 21.875C20.875 23.2212 21.9663 24.3125 23.3125 24.3125C24.6587 24.3125 25.75 23.2212 25.75 21.875C25.75 20.5288 24.6587 19.4375 23.3125 19.4375C21.9663 19.4375 20.875 20.5288 20.875 21.875Z" stroke="white" stroke-width="1.5"/>
<path d="M20.8811 10.1794C12.0613 9.56829 4.79514 8.25954 1.375 7.24988V21.9747C1.375 25.2156 1.375 26.8361 2.38182 28.1577C3.38864 29.4793 4.77 29.8526 7.53272 30.599C11.9964 31.8051 16.6882 32.5235 20.8923 32.9342C25.2493 33.36 27.4279 33.5728 29.0264 32.112C30.625 30.6511 30.625 28.3044 30.625 23.6108V20.3386C30.625 15.7807 30.625 13.5017 29.3135 12.0873C28.002 10.6729 25.6284 10.5084 20.8811 10.1794Z" stroke="white" stroke-width="1.5" stroke-linecap="round" stroke-linejoin="round"/>
<path d="M25.1419 10.5001C25.7556 8.18731 26.3111 3.98098 24.6564 1.89237C23.6076 0.568561 22.0487 0.695747 20.5204 0.830163C12.4866 1.53672 6.81134 2.972 3.63865 3.9471C2.2744 4.36639 1.375 5.6986 1.375 7.18583" stroke="white" stroke-width="1.5" stroke-linejoin="round"/>
</svg>
