<svg width="293" height="294" viewBox="0 0 293 294" fill="none" xmlns="http://www.w3.org/2000/svg">
<path d="M153.83 41.423C176.157 43.0273 197.404 51.6589 214.524 66.0806C231.644 80.5022 243.759 99.9736 249.133 121.704C254.507 143.434 252.863 166.308 244.438 187.047C236.012 207.786 221.238 225.325 202.232 237.151L182.632 205.651C194.986 197.964 204.589 186.564 210.066 173.083C215.542 159.603 216.611 144.735 213.118 130.61C209.625 116.486 201.75 103.829 190.622 94.455C179.494 85.0809 165.684 79.4704 151.171 78.4276L153.83 41.423Z" fill="#FCA311"/>
<path d="M202.857 236.759C188.715 245.695 172.66 251.157 156.003 252.699C139.347 254.241 122.562 251.819 107.02 245.631C91.4791 239.443 77.623 229.664 66.585 217.095C55.5471 204.526 47.6405 189.523 43.5119 173.312L79.4642 164.156C82.1478 174.693 87.287 184.445 94.4617 192.615C101.636 200.785 110.643 207.141 120.745 211.163C130.846 215.185 141.757 216.76 152.584 215.757C163.41 214.755 173.846 211.205 183.038 205.396L202.857 236.759Z" fill="#D9D9D9"/>
<path d="M43.4894 173.222C37.9835 151.525 39.4878 128.642 47.7867 107.852C56.0857 87.0622 70.7532 69.4333 89.6872 57.492L109.478 88.8724C97.1711 96.6342 87.6372 108.093 82.2429 121.606C76.8486 135.12 75.8708 149.994 79.4497 164.097L43.4894 173.222Z" fill="#D29AB8"/>
<path d="M89.8311 57.4014C103.042 49.099 117.924 43.8157 133.412 41.9286L137.899 78.7562C127.832 79.9829 118.159 83.417 109.572 88.8136L89.8311 57.4014Z" fill="#4A4E69"/>
<path d="M133.773 41.8851C140.392 41.1017 147.07 40.9444 153.719 41.4151L151.098 78.4225C146.777 78.1165 142.436 78.2188 138.134 78.728L133.773 41.8851Z" fill="#936760"/>
</svg>
