<svg width="663" height="200" viewBox="0 0 663 200" fill="none" xmlns="http://www.w3.org/2000/svg">
<path fill-rule="evenodd" clip-rule="evenodd" d="M1.08203 158.864L17.0562 138.496C32.4795 118.127 63.877 77.3908 95.2745 50.233C127.223 23.0751 158.62 9.49625 190.018 29.8646C221.415 50.233 252.813 104.549 284.21 111.338C315.608 118.127 347.556 77.3908 378.954 67.2066C410.351 57.0224 441.749 77.3908 473.146 84.1802C504.544 90.9697 535.941 84.1802 567.89 97.7591C599.287 111.338 630.685 145.285 646.108 162.259L662.082 179.232V199.601H646.108C630.685 199.601 599.287 199.601 567.89 199.601C535.941 199.601 504.544 199.601 473.146 199.601C441.749 199.601 410.351 199.601 378.954 199.601C347.556 199.601 315.608 199.601 284.21 199.601C252.813 199.601 221.415 199.601 190.018 199.601C158.62 199.601 127.223 199.601 95.2745 199.601C63.877 199.601 32.4795 199.601 17.0562 199.601H1.08203V158.864Z" fill="url(#paint0_linear_342_2308)"/>
<path d="M1.08203 158.258L17.0562 137.978C32.4795 117.699 63.877 77.1403 95.2745 50.1011C127.223 23.062 158.62 9.54239 190.018 29.8218C221.415 50.1011 252.813 104.179 284.21 110.939C315.608 117.699 347.556 77.1403 378.954 67.0006C410.351 56.8609 441.749 77.1403 473.146 83.9001C504.544 90.6599 535.941 83.9001 567.89 97.4196C599.287 110.939 630.685 144.738 646.108 161.638L662.082 178.537" stroke="white" stroke-opacity="0.55"/>
<path fill-rule="evenodd" clip-rule="evenodd" d="M1.08203 159.957L9.34453 153.349C18.1579 146.742 35.2337 133.527 51.7587 123.616C68.8345 113.705 85.9104 107.098 102.986 103.794C119.511 100.49 136.587 100.49 153.663 103.794C170.739 107.098 187.264 113.705 204.34 126.92C221.415 140.135 238.491 159.957 255.567 153.349C272.092 146.742 289.168 113.705 306.244 110.401C323.32 107.098 339.845 133.527 356.92 126.92C373.996 120.312 391.072 80.6681 407.597 70.757C424.673 60.846 441.749 80.6681 458.825 83.9718C475.9 87.2755 492.425 74.0607 509.501 60.846C526.577 47.6312 543.653 34.4165 560.178 54.2386C577.254 74.0607 594.33 126.92 611.405 146.742C627.93 166.564 645.006 153.349 653.82 146.742L662.082 140.135V199.601H653.82C645.006 199.601 627.93 199.601 611.405 199.601C594.33 199.601 577.254 199.601 560.178 199.601C543.653 199.601 526.577 199.601 509.501 199.601C492.425 199.601 475.9 199.601 458.825 199.601C441.749 199.601 424.673 199.601 407.597 199.601C391.072 199.601 373.996 199.601 356.92 199.601C339.845 199.601 323.32 199.601 306.244 199.601C289.168 199.601 272.092 199.601 255.567 199.601C238.491 199.601 221.415 199.601 204.34 199.601C187.264 199.601 170.739 199.601 153.663 199.601C136.587 199.601 119.511 199.601 102.986 199.601C85.9104 199.601 68.8345 199.601 51.7587 199.601C35.2337 199.601 18.1579 199.601 9.34453 199.601H1.08203V159.957Z" fill="url(#paint1_linear_342_2308)"/>
<path d="M1.08203 159.957L9.34453 153.349C18.1579 146.742 35.2337 133.527 51.7587 123.616C68.8345 113.705 85.9104 107.098 102.986 103.794C119.511 100.49 136.587 100.49 153.663 103.794C170.739 107.098 187.264 113.705 204.34 126.92C221.415 140.135 238.491 159.957 255.567 153.349C272.092 146.742 289.168 113.705 306.244 110.401C323.32 107.098 339.845 133.527 356.92 126.92C373.996 120.312 391.072 80.6681 407.597 70.757C424.673 60.846 441.749 80.6681 458.825 83.9718C475.9 87.2755 492.425 74.0607 509.501 60.846C526.577 47.6312 543.653 34.4165 560.178 54.2386C577.254 74.0607 594.33 126.92 611.405 146.742C627.93 166.564 645.006 153.349 653.82 146.742L662.082 140.135" stroke="#D9D9D9"/>
<path fill-rule="evenodd" clip-rule="evenodd" d="M1.08203 1L6.03953 14.2401C10.997 27.4801 20.912 53.9602 31.3779 63.8903C41.2929 73.8203 51.2079 67.2003 61.1229 73.8203C71.0379 80.4404 80.9529 100.3 91.4187 103.61C101.334 106.92 111.249 93.6804 121.164 106.92C131.079 120.161 141.545 159.881 151.46 153.261C161.375 146.641 171.29 93.6804 181.205 90.3704C191.12 87.0604 201.585 133.401 211.5 156.571C221.415 179.741 231.33 179.741 241.245 173.121C251.711 166.501 261.626 153.261 271.541 140.021C281.456 126.781 291.371 113.541 301.286 93.6804C311.752 73.8203 321.667 47.3402 331.582 44.0302C341.497 40.7202 351.412 60.5803 361.878 87.0604C371.793 113.541 381.708 146.641 391.623 163.191C401.538 179.741 411.453 179.741 421.919 183.051C431.834 186.361 441.749 192.981 451.664 169.811C461.579 146.641 472.045 93.6804 481.96 70.5103C491.875 47.3402 501.79 53.9602 511.705 50.6502C521.62 47.3402 532.085 34.1002 542 57.2703C551.915 80.4404 561.83 140.021 571.745 140.021C582.211 140.021 592.126 80.4404 602.041 50.6502C611.956 20.8601 621.871 20.8601 631.786 30.7901C642.252 40.7202 652.167 60.5803 657.125 70.5103L662.082 80.4404V199.601H657.125C652.167 199.601 642.252 199.601 631.786 199.601C621.871 199.601 611.956 199.601 602.041 199.601C592.126 199.601 582.211 199.601 571.745 199.601C561.83 199.601 551.915 199.601 542 199.601C532.085 199.601 521.62 199.601 511.705 199.601C501.79 199.601 491.875 199.601 481.96 199.601C472.045 199.601 461.579 199.601 451.664 199.601C441.749 199.601 431.834 199.601 421.919 199.601C411.453 199.601 401.538 199.601 391.623 199.601C381.708 199.601 371.793 199.601 361.878 199.601C351.412 199.601 341.497 199.601 331.582 199.601C321.667 199.601 311.752 199.601 301.286 199.601C291.371 199.601 281.456 199.601 271.541 199.601C261.626 199.601 251.711 199.601 241.245 199.601C231.33 199.601 221.415 199.601 211.5 199.601C201.585 199.601 191.12 199.601 181.205 199.601C171.29 199.601 161.375 199.601 151.46 199.601C141.545 199.601 131.079 199.601 121.164 199.601C111.249 199.601 101.334 199.601 91.4187 199.601C80.9529 199.601 71.0379 199.601 61.1229 199.601C51.2079 199.601 41.2929 199.601 31.3779 199.601C20.912 199.601 10.997 199.601 6.03953 199.601H1.08203V1Z" fill="url(#paint2_linear_342_2308)"/>
<path d="M1.08203 1L6.03953 14.2401C10.997 27.4801 20.912 53.9602 31.3779 63.8903C41.2929 73.8203 51.2079 67.2003 61.1229 73.8203C71.0379 80.4404 80.9529 100.3 91.4187 103.61C101.334 106.92 111.249 93.6804 121.164 106.92C131.079 120.161 141.545 159.881 151.46 153.261C161.375 146.641 171.29 93.6804 181.205 90.3704C191.12 87.0604 201.585 133.401 211.5 156.571C221.415 179.741 231.33 179.741 241.245 173.121C251.711 166.501 261.626 153.261 271.541 140.021C281.456 126.781 291.371 113.541 301.286 93.6804C311.752 73.8203 321.667 47.3402 331.582 44.0302C341.497 40.7202 351.412 60.5803 361.878 87.0604C371.793 113.541 381.708 146.641 391.623 163.191C401.538 179.741 411.453 179.741 421.919 183.051C431.834 186.361 441.749 192.981 451.664 169.811C461.579 146.641 472.045 93.6804 481.96 70.5103C491.875 47.3402 501.79 53.9602 511.705 50.6502C521.62 47.3402 532.085 34.1002 542 57.2703C551.915 80.4404 561.83 140.021 571.745 140.021C582.211 140.021 592.126 80.4404 602.041 50.6502C611.956 20.8601 621.871 20.8601 631.786 30.7901C642.252 40.7202 652.167 60.5803 657.125 70.5103L662.082 80.4404" stroke="#B9FBC0"/>
<path fill-rule="evenodd" clip-rule="evenodd" d="M1.08203 120.233L13.2004 103.698C25.3187 87.1635 50.1062 54.0936 74.3429 57.4006C99.1304 60.7076 123.367 100.391 148.155 123.54C172.391 146.689 197.179 153.303 221.415 146.689C245.652 140.075 270.44 120.233 294.676 123.54C319.464 126.847 343.7 153.303 368.488 163.224C392.725 173.145 417.512 166.531 441.749 159.917C465.985 153.303 490.773 146.689 515.01 140.075C539.797 133.461 564.034 126.847 588.821 123.54C613.058 120.233 637.845 120.233 649.964 120.233H662.082V199.601H649.964C637.845 199.601 613.058 199.601 588.821 199.601C564.034 199.601 539.797 199.601 515.01 199.601C490.773 199.601 465.985 199.601 441.749 199.601C417.512 199.601 392.725 199.601 368.488 199.601C343.7 199.601 319.464 199.601 294.676 199.601C270.44 199.601 245.652 199.601 221.415 199.601C197.179 199.601 172.391 199.601 148.155 199.601C123.367 199.601 99.1304 199.601 74.3429 199.601C50.1062 199.601 25.3187 199.601 13.2004 199.601H1.08203V120.233Z" fill="url(#paint3_linear_342_2308)"/>
<path d="M1.08203 120.36L13.2004 103.792C25.3187 87.2238 50.1062 54.0875 74.3429 57.4011C99.1304 60.7147 123.367 100.478 148.155 123.674C172.391 146.869 197.179 153.497 221.415 146.869C245.652 140.242 270.44 120.36 294.676 123.674C319.464 126.988 343.7 153.497 368.488 163.438C392.725 173.378 417.512 166.751 441.749 160.124C465.985 153.497 490.773 146.869 515.01 140.242C539.797 133.615 564.034 126.988 588.821 123.674C613.058 120.36 637.845 120.36 649.964 120.36H662.082" stroke="#4F772D"/>
<defs>
<linearGradient id="paint0_linear_342_2308" x1="331.582" y1="20.0576" x2="331.582" y2="199.601" gradientUnits="userSpaceOnUse">
<stop stop-color="#CC4B4B"/>
<stop offset="1" stop-color="#D29AB8"/>
</linearGradient>
<linearGradient id="paint1_linear_342_2308" x1="331.582" y1="44.1305" x2="331.582" y2="199.601" gradientUnits="userSpaceOnUse">
<stop stop-color="#4A4E69"/>
<stop offset="1" stop-color="#4A4E69" stop-opacity="0"/>
</linearGradient>
<linearGradient id="paint2_linear_342_2308" x1="331.582" y1="1" x2="331.582" y2="199.601" gradientUnits="userSpaceOnUse">
<stop stop-color="#8F55A2" stop-opacity="0.28"/>
<stop offset="1" stop-color="#8F55A2"/>
</linearGradient>
<linearGradient id="paint3_linear_342_2308" x1="331.582" y1="57.1699" x2="331.582" y2="199.601" gradientUnits="userSpaceOnUse">
<stop stop-color="#D29AB8"/>
<stop offset="1" stop-color="#44AB96" stop-opacity="0.49"/>
</linearGradient>
</defs>
</svg>
