<svg width="662" height="179" viewBox="0 0 662 179" fill="none" xmlns="http://www.w3.org/2000/svg">
<path fill-rule="evenodd" clip-rule="evenodd" d="M0.0820312 60.7824L9.99703 47.6472C19.912 34.5119 40.2929 8.2413 60.1229 1.67366C79.9529 -4.89398 100.334 8.2413 120.164 34.5119C140.545 60.7824 160.375 100.188 180.205 110.04C200.585 119.891 220.415 100.188 240.245 83.7692C260.626 67.3501 280.456 54.2148 300.286 64.0663C320.667 73.9177 340.497 106.756 360.878 116.607C380.708 126.459 400.538 113.324 420.919 96.9045C440.749 80.4854 460.579 60.7824 480.96 73.9177C500.79 87.053 520.62 133.027 541 152.729C560.83 172.432 581.211 165.865 601.041 139.594C620.871 113.324 641.252 67.3501 651.167 44.3633L661.082 21.3766V179H651.167C641.252 179 620.871 179 601.041 179C581.211 179 560.83 179 541 179C520.62 179 500.79 179 480.96 179C460.579 179 440.749 179 420.919 179C400.538 179 380.708 179 360.878 179C340.497 179 320.667 179 300.286 179C280.456 179 260.626 179 240.245 179C220.415 179 200.585 179 180.205 179C160.375 179 140.545 179 120.164 179C100.334 179 79.9529 179 60.1229 179C40.2929 179 19.912 179 9.99703 179H0.0820312V60.7824Z" fill="url(#paint0_linear_342_2306)"/>
<defs>
<linearGradient id="paint0_linear_342_2306" x1="330.582" y1="0" x2="330.582" y2="179" gradientUnits="userSpaceOnUse">
<stop stop-color="#FCA311"/>
<stop offset="1" stop-color="#FCA311" stop-opacity="0"/>
</linearGradient>
</defs>
</svg>
