<svg width="663" height="166" viewBox="0 0 663 166" fill="none" xmlns="http://www.w3.org/2000/svg">
<path d="M1.08203 61.7824L10.997 48.6472C20.912 35.5119 41.2929 9.2413 61.1229 2.67366C80.9529 -3.89398 101.334 9.2413 121.164 35.5119C141.545 61.7824 161.375 101.188 181.205 111.04C201.585 120.891 221.415 101.188 241.245 84.7692C261.626 68.3501 281.456 55.2148 301.286 65.0663C321.667 74.9177 341.497 107.756 361.878 117.607C381.708 127.459 401.538 114.324 421.919 97.9045C441.749 81.4854 461.579 61.7824 481.96 74.9177C501.79 88.053 521.62 134.027 542 153.729C561.83 173.432 582.211 166.865 602.041 140.594C621.871 114.324 642.252 68.3501 652.167 45.3633L662.082 22.3766" stroke="#FCA311"/>
</svg>
